<?xml version="1.0" standalone="no"?><!DOCTYPE svg PUBLIC "-//W3C//DTD SVG 1.1//EN" "http://www.w3.org/Graphics/SVG/1.1/DTD/svg11.dtd"><svg t="1586398043204" class="icon" viewBox="0 0 1024 1024" version="1.1" xmlns="http://www.w3.org/2000/svg" p-id="2389" xmlns:xlink="http://www.w3.org/1999/xlink" width="200" height="200"><defs><style type="text/css"></style></defs><path d="M527.85152 439.85408c130.24256 0 244.63872 10.55232 343.23968 29.89056 59.83232 12.35968 107.33056 24.6272 146.03776 40.48896L510.22848 5.12 6.88128 508.48256c43.99104-15.84128 100.32128-29.952 167.2192-40.45824 107.36128-19.37408 225.26976-28.17024 353.75104-28.17024z" fill="#FCCF00" p-id="2390"></path><path d="M510.22848 1018.88l503.38816-505.1136c-70.4-5.28384-167.24992-5.28384-288.62976 3.5072-128.48128 8.82688-216.50944 21.12-267.54048 36.96128-45.75232 14.11072-66.90816 33.41824-63.37024 56.32 0 7.07072 3.52768 15.86688 10.57792 22.87616l12.31872 10.5728c17.59232 12.29824 28.13952 17.61792 31.67232 21.12 15.84128 14.11584 21.08928 31.69792 17.59232 52.81792-7.00928 28.10368-63.37024 58.05056-167.15776 88.00256L510.22848 1018.88z" fill="#293C8F" p-id="2391"></path></svg>