<?xml version="1.0" standalone="no"?><!DOCTYPE svg PUBLIC "-//W3C//DTD SVG 1.1//EN" "http://www.w3.org/Graphics/SVG/1.1/DTD/svg11.dtd"><svg t="1586402646758" class="icon" viewBox="0 0 1024 1024" version="1.1" xmlns="http://www.w3.org/2000/svg" p-id="2138" xmlns:xlink="http://www.w3.org/1999/xlink" width="200" height="200"><defs><style type="text/css"></style></defs><path d="M296.92928 95.64672c82.62144 31.47776 157.37344 110.15168 157.37344 203.24352l1.29024 716.06272c18.38592 2.6368 38.0416 3.92704 57.71264 3.92704 20.98176 0 40.63744-1.29024 60.30848-3.92704V298.89024c0-93.09696 74.75712-171.76576 156.06784-203.24352 9.16992-2.64704 14.40256-11.84256 14.40256-21.0176s-6.528-18.31936-15.70304-22.28224C662.81984 22.19008 590.65856 5.12 513.31072 5.12 437.24288 5.12 365.1072 22.19008 299.5456 52.34688c-9.19552 3.95776-15.73376 13.1072-15.73376 22.28224s5.23264 18.37056 13.11744 21.0176" fill="#D7000F" p-id="2139"></path><path d="M380.84096 1000.52992V344.82688c0-72.17152-40.64256-132.50048-97.02912-156.12416v775.07072c30.16192 15.76448 62.9504 27.58656 97.02912 36.75648M744.09472 963.76832V188.6976c-56.36096 23.62368-96.9984 83.95264-96.9984 156.12416v655.70304c34.06848-9.1648 66.85696-20.98688 96.9984-36.75648M111.98464 420.85888c3.95776 0 7.87456 3.92704 9.1904 7.8848 7.8592 30.12608 31.47264 51.14368 60.32384 53.75488 9.1904-1.3568 17.03936-5.21728 23.61344-11.81184V110.0288C85.76 201.83552 7.08096 347.42784 7.08096 511.3088c0 163.97824 78.67904 309.49888 198.03648 402.66752v-361.984c-6.57408-6.55872-14.42304-10.496-23.61344-10.496-28.8512 1.3568-52.46464 23.66464-60.32384 52.47488-1.31584 3.8912-5.22752 7.84896-9.1904 7.84896-3.89632 0-6.528-3.95776-7.8592-5.23776-18.36544-22.28736-28.83584-52.47488-28.83584-85.2736 0-32.71168 10.4704-62.92992 28.83584-85.21216 1.32608-1.31072 3.95776-5.23776 7.85408-5.23776M984.13056 541.50144c-28.8512 1.32096-52.49536 23.66464-61.64992 52.47488-1.32096 3.8912-3.95776 7.84896-7.85408 7.84896-3.94752 0-7.84896-3.95776-7.84896-5.23776-18.4064-22.28736-30.18752-52.47488-30.18752-85.2736 0-32.73728 11.78112-62.8992 30.18752-85.21216 0-1.31584 3.90656-5.23776 7.84896-5.23776 3.89632 0 6.53312 3.92704 7.85408 7.92064 9.15456 30.09024 32.79872 51.10784 61.64992 53.71904 14.42816-1.29024 26.20928-11.81184 32.78848-24.87808-14.42304-140.3904-86.56384-263.64416-191.49312-346.27584v799.98464c99.6608-78.6688 170.49088-194.10944 188.8768-325.25312 1.29024-7.84384 2.62144-14.40768 2.62144-19.69152-6.58432-14.39232-18.36544-24.88832-32.7936-24.88832" fill="#D7000F" p-id="2140"></path></svg>