<?xml version="1.0" standalone="no"?><!DOCTYPE svg PUBLIC "-//W3C//DTD SVG 1.1//EN" "http://www.w3.org/Graphics/SVG/1.1/DTD/svg11.dtd"><svg t="1586402663100" class="icon" viewBox="0 0 1024 1024" version="1.1" xmlns="http://www.w3.org/2000/svg" p-id="2635" xmlns:xlink="http://www.w3.org/1999/xlink" width="200" height="200"><defs><style type="text/css"></style></defs><path d="M667.03872 989.1584l64.44032-280.99072h148.59776l18.45248-97.57696h-208.1792L626.432 895.0272H247.95648l10.84416-49.56672h332.43136l66.01216-287.42656h254.14144l18.31424-89.14944h-315.68384l-60.32896 280.3968H281.05216l10.91584-41.10848h214.54336l50.0736-239.2832H338.048l12.97408-51.49696h330.92608l38.0928-147.18976h249.37984l19.75808-90.68544H676.9664l-41.06752 143.65696h-268.1344l14.35136-55.95136h217.10848l41.58464-137.19552h358.22592L1018.88 34.8416h-421.06368l-34.73408 143.17056H341.51936L275.11808 468.88448H54.58432L5.12 704.6656h226.37568l-59.44832 284.4928h494.99136zM82.8928 609.13664l11.9296-49.56672h166.49728l-14.38208 49.56672H82.8928z m225.46432 0l10.84928-49.56672H483.7376l-10.3936 49.56672H308.35712z" fill="#108C3E" p-id="2636"></path></svg>