<?xml version="1.0" standalone="no"?><!DOCTYPE svg PUBLIC "-//W3C//DTD SVG 1.1//EN" "http://www.w3.org/Graphics/SVG/1.1/DTD/svg11.dtd"><svg t="1586402689597" class="icon" viewBox="0 0 1024 1024" version="1.1" xmlns="http://www.w3.org/2000/svg" p-id="3501" xmlns:xlink="http://www.w3.org/1999/xlink" width="200" height="200"><defs><style type="text/css"></style></defs><path d="M5.12 290.70848h226.816s42.77248 0 50.8416 12.12928h-41.96864v12.91264l64.56832 0.7936s10.49088 7.2704 10.49088 12.91264l-75.0592 0.80896v12.09344h83.14368s9.7024 4.85376 7.28576 15.34976H72.14592v13.72672l263.08096-0.80896s1.62816 10.496 1.62816 13.73184H72.14592v13.69088l265.49248-0.78336s1.63328 8.05376-2.41664 13.70624l-263.08096 2.44224v12.90752l259.09248-1.6128s0 10.496-6.48192 13.71648l-252.61056 1.62816v12.09856l244.55168-1.62304s-0.82944 12.90752-9.70752 15.34464l-234.84416 0.80896v12.90752l215.48544-1.60256s-4.85376 16.14336-37.96992 14.52032l-40.30976-0.7936v12.09856l65.3568 0.79872s27.45344 0 31.488 11.3152l-96.8448 2.41664v12.11392h113.79712s10.50624 8.05888 10.50624 12.90752l-261.504 1.60256v14.52032l267.13088-2.41152s10.496 7.26016 10.496 14.52544l-277.62688 1.6128v12.11392h281.67168s3.20512 4.02944 1.62304 11.30496l-283.29472 2.42176v12.10368h283.29472s2.41152 7.27552 0 12.90752l-283.29472 1.61792v12.92288h280.86784s2.42688 8.064-4.02944 14.50496h-276.8384v12.90752l271.17056-0.79872s-0.79872 12.92288-6.46144 13.7216h-96.0512v13.73184l83.14368-0.8192s-5.66784 12.928-11.29472 14.5408l-71.84896 0.81408v13.70112l48.43008-0.7936s-7.2704 15.3344-71.00416 12.91776L5.12 732.22656V290.70848z" fill="#FBE900" p-id="3502"></path><path d="M373.97504 578.05824s-7.26016-59.7248 60.55936-71.01952c0 0 125.88544-25.83552 129.13152 52.43904l2.41664 145.3056 8.0896 25.01632-64.57344 1.60768-4.03968-22.59968s-32.29184 33.89952-84.76672 21.80096c0 0-56.4736-4.02944-56.4736-66.19648 0 0-2.42688-41.15456 36.31616-55.67488 0 0 62.93504-17.7664 82.31936-17.7664 0 0 42.7776-7.28064 6.45632-37.14048 0 0-53.27872-12.10368-54.87104 23.40352l-60.56448 0.82432z m211.47648-67.80416h61.35296l-0.82944 23.40864s33.89952-34.69312 59.74016-31.48288c0 0 65.38752-12.9024 78.3104 63.77984l1.57696 164.64896H725.0944l-0.80896-148.51584s-16.95744-42.77248-60.5184-15.3344c0 0-19.39968 7.26016-16.1536 57.30304l0.77824 106.5472-61.312-0.80896-1.62816-219.5456z m221.93664-89.59488l56.53504 0.80896 3.2 167.8848 68.60288-89.58464h70.23104l-63.76448 87.97184L1018.88 728.18176l-71.01952 2.432-49.24928-90.39872-29.8752 40.36096 0.80896 49.2288h-60.5184l-1.6384-309.1456z m-302.6432 204.21632s-0.80896 23.41888 0 28.24192c0 0-7.26016 23.424-27.42784 27.45344 0 0-38.77376 23.38816-51.6864-6.45632 0 0-5.63712-17.76128 12.90752-25.0368 0 0 62.98112-16.13824 66.20672-24.20224z" fill="#6A1684" p-id="3503"></path></svg>