<?xml version="1.0" standalone="no"?><!DOCTYPE svg PUBLIC "-//W3C//DTD SVG 1.1//EN" "http://www.w3.org/Graphics/SVG/1.1/DTD/svg11.dtd"><svg t="1586402651990" class="icon" viewBox="0 0 1024 1024" version="1.1" xmlns="http://www.w3.org/2000/svg" p-id="2262" xmlns:xlink="http://www.w3.org/1999/xlink" width="200" height="200"><defs><style type="text/css"></style></defs><path d="M1018.368 489.97888c-6.51776-178.57536-117.7856-300.12416-117.7856-300.12416C728.56576-10.23488 507.91424 8.46336 507.91424 8.46336 272.2816 0.99328 127.36512 178.64192 127.36512 178.64192 28.24704 296.45312 17.0496 404.8896 17.0496 404.8896c-43.95008 182.3232 47.68256 339.38944 47.68256 339.38944 68.224 123.41248 140.24192 180.44928 257.13664 234.69568 116.864 54.21568 294.4768 46.7456 404.82304-8.42752 110.30528-55.15264 177.60768-115.93216 239.34976-230.93248 61.71136-115.00032 52.3264-249.63584 52.3264-249.63584zM460.20096 904.17664s-185.11872-10.28608-287.03232-187.94496c0 0-87.8848-125.28128-51.4048-281.41056 36.44928-156.14464 121.50784-218.78784 138.36288-234.68032 16.82944-15.8976 125.75232-80.67584 200.06912-79.488v186.07616H381.70112S275.08224 313.27232 271.36 431.07328v172.04736s2.80064 105.6512 113.14176 117.7856h75.6992v183.2704z m-63.58016-292.6592s-18.67264 4.67456-21.46816-16.81408V430.14144s2.75968-17.77152 16.78848-17.77152h230.95296s19.63008-3.73248 21.50912 17.77152v159.87712s4.66944 25.25184-14.0288 21.49888H396.6208z m449.73056 120.61184c-74.7776 114.07872-216.89344 166.43072-283.27936 172.04736v-183.27552h87.8848s93.51168-18.68288 99.08736-115.92192V409.56928s-14.9504-98.16576-118.74304-102.84544h-68.224V120.68352s116.8896 9.32864 211.3024 96.28672c94.40256 86.9376 118.73792 173.91104 129.03936 220.65152 10.27072 46.74048 17.71008 180.43392-57.06752 294.50752z" fill="#B81C22" p-id="2263"></path></svg>