<?xml version="1.0" standalone="no"?><!DOCTYPE svg PUBLIC "-//W3C//DTD SVG 1.1//EN" "http://www.w3.org/Graphics/SVG/1.1/DTD/svg11.dtd"><svg t="1586402682404" class="icon" viewBox="0 0 1024 1024" version="1.1" xmlns="http://www.w3.org/2000/svg" p-id="3250" xmlns:xlink="http://www.w3.org/1999/xlink" width="200" height="200"><defs><style type="text/css"></style></defs><path d="M466.20672 7.26016L489.6256 5.12H536.4992l21.29408 2.14016v310.912l-2.13504 2.1504-2.11456 4.25472h-2.12992l-2.13504 2.13504-6.41024 2.11968H483.25632l-6.36416-2.11968-2.176-2.13504h-4.25984v-4.25472l-2.11456-2.1504-2.13504-8.50432V7.26016z m215.0912 502.60992v151.2192l-2.1248 4.25472-2.13504 2.12992-2.11456 4.25472h-4.25984l-4.23936 2.13504-8.56576 2.12992h-89.46176v238.53056l19.18976-4.26496 19.17952-2.11968 17.06496-6.38464 17.04448-4.2752 8.50432-2.12992 8.47872-4.25984 17.06496-6.38976 17.05472-8.50432 14.92992-8.5248 16.98304-8.51968 14.94528-8.5248 12.74368-10.65472 14.9248-10.62912 27.65824-23.4496 12.81536-12.76416 10.63936-12.7744 12.78976-14.89408 10.63424-12.79488 10.67008-14.90944 8.4992-14.91456 8.50432-17.02912 8.55552-14.89408 8.48896-17.04448 6.3744-17.04448 10.69056-34.08384 6.36928-17.02912 2.11968-19.15904 4.25472-17.03424 2.18624-19.17952 2.13504-38.32832-2.13504-29.80864-2.18624-14.91456V452.4032l-6.3744-29.824-8.4992-29.82912-4.2496-12.78976-4.31616-12.75904-10.61376-27.6992-14.93504-25.53856-12.73856-25.55392-17.05472-21.30944-19.16928-23.424-19.17952-21.2992-21.3248-19.16928-21.23264-17.04448-23.48544-17.01888-25.49248-14.8992-25.61024-12.8v349.2864l-2.1248 4.25472-2.13504 2.1504-2.11456 4.23424-4.25984 2.15552h-4.23936l-8.56576 2.11456H532.224l-2.11456 2.14528-2.14016 2.11456V362.92096l2.14016-4.28032 2.11456-4.22912 4.25984-2.14016h57.52832l8.48896-2.13504 6.3744-2.12992 4.25984-2.12992 4.31616-6.39488V15.78496l42.53696 12.7488 21.30432 6.39488 19.17952 6.38464 21.30432 8.51968 19.17952 10.6496 19.17952 8.5248 16.98304 10.65472 19.18464 12.77952 17.0496 10.65984 17.05472 12.75392 14.86848 14.8992 17.06496 14.90944 14.92992 14.93504 27.66848 29.80864 12.81024 17.04448 12.7488 17.024 10.61888 19.16416 10.67008 17.03424 21.3248 38.32832 8.47872 19.15904 6.43072 21.30432 12.7488 40.45824 6.3744 21.3248 4.31616 21.29408 2.11456 21.2992 4.25984 23.41376V537.55904l-2.13504 25.55904-2.1248 25.53856-4.3008 25.56416-6.3744 23.424-6.3744 25.55904-8.50432 23.43424-8.54528 21.29408-10.63936 23.43936-10.67008 21.27872-12.74368 21.28384-12.80512 21.31968-14.86336 19.14368-14.92992 19.18464-14.93504 19.17952-17.00352 17.02912-17.04448 17.01888-19.17952 14.92992-19.17952 14.90432-19.18464 14.90432-21.30432 12.78976-21.29408 12.76416-21.30432 10.63424-23.36768 10.66496-21.30432 8.50944-25.62048 8.53504-23.36768 6.36928-23.424 6.38976-25.59488 4.27008-25.55904 2.12992-25.55392 2.11456-25.5232 2.16064-25.55904-2.14016-25.55392-2.11456-25.55904-2.12992-25.55392-4.27008-25.5488-6.38976-23.41888-6.36928-23.41888-8.53504-23.43424-8.50944-21.30432-10.66496-21.30432-10.63424-21.31456-12.76416-21.30432-12.78976-19.17952-14.90432-19.18976-14.90432-19.17952-14.92992-16.98304-17.01888L138.24 852.77696l-17.06496-19.17952-14.86848-19.18464-12.80512-19.14368-12.74368-21.31968-12.80512-21.28384-10.61376-21.27872-10.69568-23.44448-8.48896-21.29408-8.576-23.43424-6.3744-25.55904-6.3744-23.424-4.23936-25.56416-4.3008-25.53856-2.13504-25.55904v-48.98304l2.13504-21.30944 2.1248-23.41376 4.31616-21.2992 4.23424-21.29408 4.23936-21.3248 12.81536-40.45824 8.50432-21.30432 8.48896-19.15904 8.55552-19.1488 10.63424-19.17952 10.67008-17.03424 12.73344-19.16416 12.81536-17.024 12.74368-17.04448 12.80512-14.9248 14.86848-14.88384 14.94016-14.93504 14.91456-14.90944 34.05824-25.55904 17.05472-12.75392 17.06496-12.77952 19.17952-10.65472 19.11808-8.5248 19.16928-10.6496 19.17952-8.51968 19.17952-6.38464 21.30432-6.39488 21.30432-6.36928 21.29408-6.37952V339.50208l2.14016 4.28032 2.11456 2.11456 6.3744 2.12992 6.3744 2.12992 6.43584 2.13504h57.48224l4.23936 2.14016 4.23936 4.22912v151.22944l-4.23936-4.25984h-125.6448l-8.55552-2.11456h-4.2496l-2.0992-2.15552-4.2752-4.23424-2.0992-2.1504v-4.2752l-2.14016-6.37952V141.4144l-25.5488 12.8-23.41888 14.8992-23.43936 17.01888-23.41376 17.04448-21.30432 19.16928-19.17952 21.2992-17.0496 23.424-17.08032 23.43936-14.85312 23.424-12.80512 25.53856-6.36416 12.8-4.25984 14.90944-10.67008 27.68896-6.3744 27.68896-6.3744 29.824-2.13504 14.88896v14.91456L106.30656 512v19.16928l2.1248 19.15904 2.13504 17.02912 2.1248 19.18464 4.2496 19.15904 4.23936 17.02912 6.3744 17.04448 2.2016 8.51968 4.23424 8.51968 6.3744 17.04448 6.3744 17.04448 17.06496 31.9232 21.28896 27.69408 10.62912 14.9248 10.69056 14.89408 12.74368 12.7744 12.78976 12.76416 25.55904 23.4496 14.94016 10.62912 14.86848 10.65472 29.85472 17.04448 16.98304 8.5248 14.93504 8.50432 17.04448 6.38976 17.06496 6.38976 19.11808 4.2752 17.05472 6.38464 17.05472 2.11968 19.18976 4.26496V675.9936h-89.4976l-8.55552-2.12992-2.11456-2.13504h-4.22912l-4.2752-4.25472-2.0992-2.12992v-4.25472l-2.14016-6.40512V509.87008l2.14016 2.12992 2.0992 2.12992 6.3744 4.25984 6.3744 2.12992 6.43072 2.14016h121.40032l4.23936 2.11968 4.23936 4.26496v144.8192h31.98976V533.2992l2.14016-4.25472 2.11456-4.26496 4.25984-2.11968h121.36448l6.43072-2.14016 6.3744-2.12992 6.3744-4.25984 4.2496-4.25984z" fill="#009174" p-id="3251"></path></svg>