<?xml version="1.0" standalone="no"?><!DOCTYPE svg PUBLIC "-//W3C//DTD SVG 1.1//EN" "http://www.w3.org/Graphics/SVG/1.1/DTD/svg11.dtd"><svg t="1586402655729" class="icon" viewBox="0 0 1024 1024" version="1.1" xmlns="http://www.w3.org/2000/svg" p-id="2385" xmlns:xlink="http://www.w3.org/1999/xlink" width="200" height="200"><defs><style type="text/css"></style></defs><path d="M527.15008 124.50816C370.31936 113.68448 48.64 133.28896 9.03168 327.67488c-31.50848 154.74176 204.91776 245.53472 370.4576 262.8864-33.81248 19.93216-67.69152 39.86432-101.5808 59.776 73.71776 41.79968 147.44064 83.67616 221.11232 125.47584l202.35776-118.62528-202.14784-107.41248c-36.10112-8.2944-74.24 4.7616-98.0224 5.08416-114.49856 1.52064-273.48992-123.81696-230.81984-233.15968 83.04128-238.49472 638.51008-204.06784 693.10976 35.84512H1018.88c-76.09856-184.25344-334.88896-222.18752-491.72992-233.0368z m-19.17952 477.824l102.12864 55.70048-105.20064 55.72096-97.50016-55.72608 100.57216-55.69536z" fill="#5AA472" p-id="2386"></path><path d="M978.35008 571.35616C887.07072 455.2704 637.94176 427.4176 637.94176 427.4176l100.5824-61.86496-224.34816-125.3632-211.98848 120.68352 176.38912 99.072c286.23872-3.09248 371.34848 151.63904 371.34848 151.63904 71.17824 230.62528-348.11904 245.44256-348.11904 245.44256-238.33088 26.35264-351.25248-186.62912-351.25248-186.62912L5.12 675.05664c170.19904 345.1136 790.35904 193.75104 790.35904 193.75104 320.30208-100.58752 182.87104-297.45152 182.87104-297.45152z m-464.1792-153.18016l-100.56192-51.09248L509.5424 305.15712l100.56192 54.17472-95.93344 58.84416z" fill="#1D2087" p-id="2387"></path></svg>