<?xml version="1.0" standalone="no"?><!DOCTYPE svg PUBLIC "-//W3C//DTD SVG 1.1//EN" "http://www.w3.org/Graphics/SVG/1.1/DTD/svg11.dtd"><svg t="1586402697547" class="icon" viewBox="0 0 1024 1024" version="1.1" xmlns="http://www.w3.org/2000/svg" p-id="3748" xmlns:xlink="http://www.w3.org/1999/xlink" width="200" height="200"><defs><style type="text/css"></style></defs><path d="M475.81184 40.83712s86.07744-66.42688 234.07616-18.0992c0 0 49.81248 18.0992 107.22816 69.45792l178.17088 187.25888-95.09888 95.14496-271.87712-276.36224c0 0.00512-45.29664-55.8848-152.4992-57.40032z m392.69376 366.98624l-111.77472 108.73344s-18.16064 25.66656-33.26464 1.536l-205.35808-200.90368s-18.16064-24.1408-31.76448-2.98496l-206.88384 211.44064s-13.57824 21.14048 3.00032 30.18752l202.3936 202.35776s16.57856 27.17696 31.73376 6.05696l209.88416-211.42016s6.0672-18.15552 39.29088-13.5936h214.43072s9.09312 217.472-157.04064 353.35168c0 0-215.9104 215.9872-511.9488 83.05664 0 0-285.46048-99.67104-282.46528-469.65248 0 0 7.5776-247.66976 232.64768-379.05408 0 0 164.59264-122.34752 295.95136-31.73376l311.168 312.62208z" fill="#003B8F" p-id="3749"></path></svg>