<?xml version="1.0" standalone="no"?><!DOCTYPE svg PUBLIC "-//W3C//DTD SVG 1.1//EN" "http://www.w3.org/Graphics/SVG/1.1/DTD/svg11.dtd"><svg t="1586402693716" class="icon" viewBox="0 0 1024 1024" version="1.1" xmlns="http://www.w3.org/2000/svg" p-id="3625" xmlns:xlink="http://www.w3.org/1999/xlink" width="200" height="200"><defs><style type="text/css"></style></defs><path d="M805.67808 765.44c-59.53536 1.89952-114.55488 3.83488-174.07488 5.7344-37.65248 160.29184-349.30688 117.0176-314.58816-86.38464 17.45408-120.48384 180.25984-173.11744 281.27744-82.1248 22.24128 25.06752 33.0752 48.38912 40.23808 99.40992 49.90464-1.93536 117.23776-3.82976 167.14752-5.76512 2.51904-259.21024-291.90144-390.75328-512.65024-264.96-211.6608 120.58112-187.20256 487.94112 34.53952 581.76V1018.88c-120.91904-2.4064-253.55776-96.06656-282.4448-207.36l1.64352-597.58592C142.78144 148.64384 248.86272 70.38464 344.87296 5.12c3.80928 1.93536 7.68 3.84512 11.4944 5.77024-6.61504 90.09664-2.44224 238.60736 2.8672 347.04384 60.1856-58.37824 100.66944-119.424 204.51328-139.67872 66.92864-13.07648 130.96448-5.20192 171.34592 8.63744 303.2832 103.89504 322.19648 495.81056 64.80384 630.69696-5.7856 0-18.26304 11.33568-27.84256 13.24032 0-1.93536 6.00576-10.25536 10.56256-18.97984 7.69536-28.82048 15.36-57.62048 23.06048-86.41024z" fill="#1D2087" p-id="3626"></path></svg>