<?xml version="1.0" standalone="no"?><!DOCTYPE svg PUBLIC "-//W3C//DTD SVG 1.1//EN" "http://www.w3.org/Graphics/SVG/1.1/DTD/svg11.dtd"><svg t="1586406118399" class="icon" viewBox="0 0 1024 1024" version="1.1" xmlns="http://www.w3.org/2000/svg" p-id="3871" xmlns:xlink="http://www.w3.org/1999/xlink" width="200" height="200"><defs><style type="text/css"></style></defs><path d="M1018.80832 508.672c0-129.9456-176.11776-235.30496-393.344-235.30496-173.8752 0-321.39264 67.59936-373.2736 161.18272v-0.1024c-4.80256 8.704-7.47008 18.17088-7.47008 28.04736 0 23.35232 14.71488 44.12416 37.67808 57.66144l199.3984 115.10784c10.33216 5.65248 22.62016 8.97024 35.87072 8.97024 13.34272 0 25.63584-3.31264 35.96288-8.91392l189.11744-109.27104c12.7744-7.37792 20.90496-18.92864 20.90496-31.83104 0-12.5184-7.6544-23.63904-19.72224-31.09376l-70.31808-40.6272-155.94496 89.95328L399.8208 444.30848c45.5168-41.0368 130.42176-68.64896 227.61472-68.64896 145.34656 0 263.17312 61.7216 263.17312 137.89184-3.03616 117.89312-176.00512 209.17248-386.0736 203.71456-210.1504-5.57056-377.96352-105.73312-374.90688-223.63648h-0.07168c1.54112-155.48416 205.37856-279.62368 455.25504-277.1968 22.32832 0.24576 44.11392 1.41312 65.44384 3.56352-51.26656-18.91328-115.31264-30.1312-184.97536-30.1312-55.68 0-107.77088 7.20896-152.63232 19.70176C131.77856 259.22048 5.12 374.45632 5.12 508.672c0 179.72224 226.91328 325.45792 506.91072 325.45792 279.93088 0 506.84928-145.7408 506.84928-325.45792h-0.07168z" fill="#002E6C" p-id="3872"></path></svg>