<?xml version="1.0" standalone="no"?><!DOCTYPE svg PUBLIC "-//W3C//DTD SVG 1.1//EN" "http://www.w3.org/Graphics/SVG/1.1/DTD/svg11.dtd"><svg t="1586407933022" class="icon" viewBox="0 0 1024 1024" version="1.1" xmlns="http://www.w3.org/2000/svg" p-id="4241" xmlns:xlink="http://www.w3.org/1999/xlink" width="200" height="200"><defs><style type="text/css"></style></defs><path d="M998.89152 649.95328c13.0048-44.97408 19.98336-90.97728 19.98336-138.97216 0-138.94656-49.99168-258.93888-148.95104-356.88448C770.9696 55.10144 649.96352 5.13024 511.98976 5.13024c-139.94496 0-258.90304 49.96608-357.9136 148.9664C55.14752 252.04224 5.12 372.03456 5.12 510.98112c0 138.97216 50.02752 259.92704 148.95616 358.92224 99.01056 98.97472 217.96864 148.9664 357.9136 148.9664 98.01216 0 184.99072-23.99744 261.95456-70.9632 107.95008-65.00352 152.95488-140.96384 137.97376-226.944-13.00992-71.99744-67.98336-121.98912-164.95104-149.98528l-23.0144-7.99232c40.97536-22.9888 64.96256-54.00064 70.99392-93.952 5.97504-45.01504-12.00128-87.00928-55.98208-125.01504-44.00128-39.97696-100.97152-63.9744-170.99264-74.95168-77.95712-12.01152-166.92736-12.99968-266.9056-5.0176v159.96928c78.976-10.9824 159.97952-10.9824 243.93216 1.00864 69.9904 10.98752 107.9808 32 111.97952 66.97472 1.01888 6.99392-1.9968 14.99136-7.0144 25.99424-10.9824 18.00192-34.97472 23.99744-72.97024 18.00192-98.97472-11.99616-190.95552-11.99616-275.92704 0v162.95936c120.97024-15.01696 225.93536-14.0032 313.92256 3.99872 72.97024 12.98432 111.97952 38.97856 114.95936 76.96896 2.00704 16-3.99872 30.98112-18.00192 47.98976-35.01056 38.9888-99.97824 57.98912-198.94784 57.98912-103.95136 0-192.9216-35.98848-265.92256-108.96896-73.0112-73.00608-109.9776-160.9728-109.9776-264.92416 0-102.97344 36.97152-191.97952 109.9776-264.94976C321.06496 174.08 409.04704 137.088 512.9984 137.088c102.96832 0 191.93856 36.99712 263.92576 109.97248 73.00608 71.99744 109.98272 161.9712 109.98272 264.94976l-2.00192 40.96c43.99616 25.03168 81.99168 57.01632 113.98656 96.98304z" fill="#E50012" p-id="4242"></path></svg>