<?xml version="1.0" standalone="no"?><!DOCTYPE svg PUBLIC "-//W3C//DTD SVG 1.1//EN" "http://www.w3.org/Graphics/SVG/1.1/DTD/svg11.dtd"><svg t="1586407865647" class="icon" viewBox="0 0 1024 1024" version="1.1" xmlns="http://www.w3.org/2000/svg" p-id="3994" xmlns:xlink="http://www.w3.org/1999/xlink" width="200" height="200"><defs><style type="text/css"></style></defs><path d="M983.00416 219.35616l-35.90144-45.96736s-140.7232 22.97856-137.86624-56.02304c0 0 10.03008-58.89024-91.904-35.90656 0 0-24.44288-22.98368-22.98368-35.87072 0 0 7.17312-34.47808-103.39328-15.81568 0 0-163.712 20.10112-343.25504 225.45408 0 0-180.94592 147.90144-180.94592-4.31616 0 0-99.10272 100.5312-45.96224 180.97664 0 0 60.34432 84.69504 175.232 15.744 0 0-35.90656 278.63552 147.90144 423.70048 0 0 192.4096 178.05824 413.63456 114.85696 0 0 185.23648-38.75328 255.61088-225.45408 0 0-33.01376 33.0496-47.39072 30.16704 0 0 50.2528-60.31872 53.10976-86.15936 0 0-1.39776-35.9424-30.1312 20.10112 0 0 7.20384-34.45248-12.94848-17.23904 0 0-97.67936 113.45408-139.26912 119.19872 0 0-308.78208 182.41024-449.57184-185.2672 0 0-60.25728-173.74208 81.8688-304.4352 142.18752-130.72384 281.51296-117.74464 409.28768-22.97856 0 0 64.6656-73.2416 91.96544-58.89024-0.00512 0 24.37632-14.35136 12.91264-35.87584z" fill="#E50012" p-id="3995"></path><path d="M552.1664 440.48896l305.92-1.42848v232.66304h-305.92V440.48896z" fill="#DBDCDC" p-id="3996"></path></svg>