<?xml version="1.0" standalone="no"?><!DOCTYPE svg PUBLIC "-//W3C//DTD SVG 1.1//EN" "http://www.w3.org/Graphics/SVG/1.1/DTD/svg11.dtd"><svg t="1586402659643" class="icon" viewBox="0 0 1024 1024" version="1.1" xmlns="http://www.w3.org/2000/svg" p-id="2509" xmlns:xlink="http://www.w3.org/1999/xlink" width="200" height="200"><defs><style type="text/css"></style></defs><path d="M778.46016 696.58624l6.94784-2.9952 2.88768-1.57184 2.59072-1.85344 2.2784-2.03264 2.88256-3.5072 1.13152 1.46944 2.39104 2.56512 2.69824 2.31424 2.99008 2.03264 6.54848 3.57376h-33.34656v0.00512z m30.23872-13.21472l1.44896 3.57376 3.4304-1.00864 0.68096-0.28672 0.61952-0.4608 0.62976-0.5632 2.01216-2.56512 1.65888-2.56512 1.3312-2.70336 1.07008-2.7392 0.2816-1.40288 0.0512-1.30048-0.24064-1.18272-0.57856-1.01376-0.95232-0.7936-1.1776-0.49152-1.408-0.29184-1.64864-0.08704h-27.71968l0.27136-4.22912-1.92-2.23232-0.98816-0.27648-0.768-0.06144-0.74752 0.04096-0.68096 0.26624-0.60928 0.384-0.57856 0.51712-0.4608 0.65024-1.02912 2.21696-0.82944 1.46944-1.80224 2.88256-2.46784 3.08736-2.11968 2.50368-0.13824-3.08224-2.0992-2.06336-11.82208-4.14208-1.9712-0.64-0.80896-0.08704h-0.768l-0.72192 0.12288-0.6912 0.30208-0.59904 0.40448-0.52224 0.53248-0.4096 0.67584-0.2816 0.75776-0.19968 0.77824-0.01024 0.80896 0.18944 0.76288 0.33792 0.65536 0.48128 0.54272 0.56832 0.44032 0.66048 0.38912 1.3824 0.53248 1.152 0.3072c1.18784 0.3328 2.42176 0.7424 3.56864 1.08032l3.57888 1.29024c1.3312 0.51712 2.62144 1.03936 3.8912 1.59232l0.75776 0.2304 0.75776 0.10752 2.00192-0.04096-0.03072 1.25952 0.14848 0.72704 0.70144 1.5616-3.38944 1.4336-3.6608 2.38592-3.73248 2.19648-3.95776 2.06336c-1.61792 0.77824-3.27168 1.5616-4.87936 2.3552l-0.67072 0.48128-0.54784 0.54272-0.38912 0.64-0.2304 0.72192-0.07168 0.77824 0.11776 0.77824 0.32256 0.75776 0.41984 0.72704 0.56832 0.64 0.66048 0.41984 0.74752 0.29184 0.768 0.08192h0.79872l0.80896-0.1536 0.8192-0.26624 4.8384-2.19648c1.77152-0.93696 3.56864-1.83808 5.27872-2.81088l2.432-1.36192-0.08192 2.77504 0.18944 0.8704 0.96768 1.92512h-5.12l-1.17248 0.10752-1.152 0.36352-1.0496 0.53248-0.90112 0.77824-0.73216 0.8704-0.57856 1.03424-0.34816 1.17248-0.10752 1.14688v19.0208l0.06144 0.70656 0.22016 0.74752 0.32768 0.63488 3.10784 3.02592-7.38816 0.5632-0.83968 0.13824-0.74752 0.26624-0.6912 0.384-0.55808 0.46592-0.4608 0.58368-0.31232 0.72704-0.15872 0.72704-0.01024 0.88576 0.25088 0.83456 0.34816 0.6912 0.47104 0.58368 0.57856 0.45056 0.65024 0.33792 0.74752 0.25088 0.78848 0.10752h0.86016l7.47008-0.5632 6.62016-1.36192 5.71904-2.14528 4.87936-2.9184 3.9424-3.7632 3.0208-4.56192 2.02752-5.29408 1.14176-5.99552 0.07168-0.88576-0.06144-0.84992-0.55808-2.19648 16.19968 0.04096 0.34816 0.09216 0.26112 0.17408 0.33792 0.44032c0.0512 0.1792 0.128 0.36864 0.13824 0.64v14.37696l0.26112 2.59072-3.98848-1.64864a119.2448 119.2448 0 0 0-5.9392-2.10432l-1.14176-0.36864-2.7904-0.74752-0.80896-0.13824-0.7424-0.02048-0.75776 0.10752a4.15744 4.15744 0 0 0-1.24928 0.54784l-1.52064 1.3056-0.09216 2.0736 0.13824 0.70144 0.2816 0.66048 0.37888 0.58368 0.54784 0.51712 0.60928 0.40448 0.72192 0.31744 3.31776 0.98816 3.17952 1.06496 3.1488 1.18272 3.0976 1.23392 3.072 1.3824 3.03104 1.46944 2.97984 1.57184 3.11808 1.77152 2.97984 0.61952 2.49856-2.048v-3.16416l-2.17088-2.29888-8.06912-4.19328 2.01216-1.13664 0.61952-0.47616 0.4608-0.63488 0.3584-0.64 0.2304-0.75776 0.07168-0.7424v-17.32096l-0.128-1.16736-0.32768-1.15712-1.7408-3.15904 6.09792 1.536 3.0976-0.18944 1.8176-2.35008 0.03072-1.06496-0.13824-0.7936-0.22016-0.73216-0.36864-0.65024-0.53248-0.55296-0.60928-0.4352-0.71168-0.36864-4.6592-1.34656-3.52256-1.27488-4.1216-1.87392 0.10752 0.24576-4.80256-3.46624-2.36032-2.0736-2.08896-2.3296-1.54112-2.11968 0.33792-1.15712 0.30208-1.34656h13.13792c-0.768 1.11616-1.52064 2.23232-2.30912 3.29728-0.61952 0.81408-1.26976 1.64352-1.82784 2.44224l-0.31232 0.6912-0.19968 0.74752-0.01024 0.75776 0.128 0.65024z m1.44896 3.57376l0.01024 0.07168-0.0512-0.04096 0.04096-0.03072z m-34.12992-1.72032l-1.03936-3.64032 1.5104-0.37376a6.4 6.4 0 0 0 2.01216-1.1264c0.68096-0.5888 1.37216-1.22368 2.01216-1.94048 1.00864-1.03424 1.94048-2.22208 2.90816-3.37408h8.36096l-0.4608 1.69984-1.20832 2.60096-1.73056 2.3552-2.11968 2.10432-2.66752 1.8944-3.15904 1.67936-3.6608 1.47968-3.93216 1.24416 3.1744-4.60288z m11.76064 35.81952l0.65024-1.6384 1.31072-1.9456-0.08192 2.01216-1.87904 1.57184z m-3.0208-16.86016l-0.93184 2.16576-0.24064 0.88064-0.72192 4.66944-1.46944 3.93216-2.24256 3.30752-3.00032 2.77504-3.79904 2.19648-8.24832 2.88256 2.6112-3.2 0.38912-0.67072 0.20992-0.75776 0.08192-0.72704v-16.32768l0.128-0.40448 0.19968-0.24576 0.2304-0.24576 0.61952-0.1792 16.18432-0.0512z m-59.25888-11.17184h-31.1296l2.59072-2.14528 1.80224-1.90464 1.44896-2.03264 1.152-2.19136 0.78848-2.29888 0.47104-2.41152 0.14848-2.56512v-5.35552h15.52896v12.20608l0.16896 1.97632 0.36864 1.69472 0.25088 0.68096 0.34816 0.63488 0.38912 0.51712 0.44032 0.42496 0.53248 0.42496 4.70016 2.34496z m-9.66656 17.82784l-1.77152 1.69984-3.38944 2.88256-2.02752-1.77152-1.24928-1.24416a68.1728 68.1728 0 0 1-2.36032-2.50368l-1.42848-1.67936-2.72896-3.6864-2.5088-3.79904h24.2176l-1.3824 2.83136-1.1008 1.87392-1.25952 1.8176-1.39776 1.81248-1.6128 1.7664z m-28.14976-15.88736l-2.10944 1.18272c-1.14176 0.74752-2.24256 1.58208-3.38944 2.37056v-12.6976h8.85248l-0.2304-5.13024-0.18944-0.54784-0.34816-0.54272-0.49152-0.48128-0.55808-0.3328-0.59904-0.21504-0.62976-0.0512h-5.80096v-12.66688l-0.04096-0.64-0.20992-0.62976-0.32768-0.5888-0.45056-0.45568-0.56832-0.38912-0.61952-0.25088-0.68096-0.11776h-1.53088l-0.65024 0.13312-0.64 0.27136-0.53248 0.38912-0.45056 0.4352-0.33792 0.60416-0.1792 0.64-0.06144 0.59904v12.66688h-6.1184l-0.64 0.0512-0.65024 0.21504-0.57856 0.30208-0.47104 0.48128-0.38912 0.55808-0.20992 0.64512-0.16896 0.67072v1.52064l0.16896 0.61952 0.20992 0.63488 0.38912 0.5632 0.47104 0.4608 0.56832 0.33792 0.64 0.17408 0.65024 0.07168h6.12864v16.52224l-2.33984 1.13664-3.00032 1.55648c-0.96768 0.51712-1.98144 1.024-2.92864 1.59744l-0.50176 0.47616-0.38912 0.51712-0.26112 0.59904-0.13824 0.61952v0.70656l0.1024 0.67072 0.20992 0.74752 0.36864 0.6912 0.41984 0.56832 0.47104 0.45568 0.5376 0.37376 0.57856 0.22528 0.64 0.128 0.64-0.04096 0.68096-0.09216c0.94208-0.44032 1.84832-0.84992 2.7392-1.32096l2.17088-1.14176v15.60576l-3.04128-1.0752-3.30752-0.07168-1.8176 2.70336-0.02048 1.00352 0.08192 0.7424 0.20992 0.75776 0.34816 0.66048 0.49152 0.65536 0.57856 0.5632 0.7424 0.44544 0.82944 0.384 2.74944 0.73216 2.3808 0.31744 2.08896-0.07168 1.8176-0.53248 1.4592-1.03936 1.81248-2.62144 1.32096 2.24768 0.512 0.58368 0.5888 0.49152 0.68096 0.35328 0.7424 0.20992 0.8192 0.10752 0.83968-0.03584 0.9216-0.10752 3.12832-0.82944 3.00032-0.8704 2.9184-0.98816 2.7904-1.024 2.71872-1.13664 2.6112-1.23904 4.41856-2.33472 1.8688 1.16736 2.64192 1.43872 2.83136 1.28512 3.04128 1.2032 3.22048 1.06496 3.40992 0.95232 3.64032 0.8704 3.8912 0.75776 0.8704 0.02048 0.79872-0.07168 0.72192-0.17408 0.6912-0.37376 0.56832-0.47616 0.47104-0.62464 0.32256-0.70656 0.20992-0.86528-0.06144-0.9216-0.14848-0.75776-0.30208-0.77312-0.41984-0.5888-0.57856-0.57856-0.66048-0.42496-0.75776-0.33792-0.8192-0.2304-2.63168-0.44544-2.51904-0.52736-2.5088-0.64-2.432-0.77824-2.41152-0.91648-2.3808-1.00864-3.47136-1.67936 2.90816-2.86208 1.8176-2.0736 1.75104-2.19136 1.6384-2.32448 1.54112-2.46784 1.41824-2.5856 1.36192-2.70336 0.75776-1.96608 0.38912-1.83296 0.02048-0.8704-0.09216-0.84992-0.18944-0.82944-0.32256-0.75776-0.48128-0.71168-0.53248-0.55808-0.61952-0.53248-4.43904-2.4576h9.62048l0.78848-0.10752 0.75776-0.2048 0.66048-0.32256 0.55808-0.42496 0.512-0.56832 0.32768-0.65024 0.22016-0.72704 0.1024-0.81408-0.1024-0.75776-0.15872-0.71168-0.32256-0.67584-0.47104-0.55808-0.59904-0.40448-0.71168-0.32256-0.75776-0.17408-0.84992-0.04096h-6.59968l-1.5616-0.40448v-13.1584l-0.07168-1.27488-0.30208-1.18272-0.50176-1.05984-0.72192-0.86528-0.9216-0.6912-1.08032-0.44544-1.25952-0.27136-1.32096-0.08704h-17.48992l-1.47968 0.08704-1.34144 0.27136-1.18784 0.42496-0.96256 0.6912-0.768 0.88576-0.52224 1.1008-0.27136 1.23392-0.1024 1.3824v5.34016l-0.06144 1.8176-0.32768 1.69984-0.52224 1.52064-0.75776 1.50528-2.74944 3.6608v-0.5632l-3.84 2.56512-0.5888 0.5632-0.48128 0.67072-0.32256 0.7168-0.16896 0.77824 0.08192 0.82432 0.27136 0.80896 0.43008 0.75776 1.26464 1.4336z m3.34848-9.14432h0.02048-0.02048z m-8.85248 43.18208v-21.89824c2.24768-1.34656 4.50048-2.65728 6.6816-3.99872l0.74752-0.44032 3.10784-3.63008-1.11104 4.65408v0.79872l0.15872 0.82432 0.32768 0.84992 0.44032 0.84992 2.90816 4.03456 2.90816 3.56864c0.95232 1.1008 1.90976 2.14016 2.90816 3.21024l2.07872 2.12992-4.7616 2.23744-2.24768 0.88576-4.84864 1.65888-5.48864 1.54112-0.8192 0.31744-0.71168 0.44544-2.2784 1.96096z m-184.95488-41.23648v6.21056l-0.23552 0.36864-0.14848 0.19456-0.46592 0.3328c-0.1024 0-0.2816 0-0.40448 0.04096h-21.28896v-7.14752h22.54336z m-22.53312-13.83424l0.11264-0.31744 0.19968-0.3328 0.24576-0.21504 0.32256-0.11776 0.2816-0.04096 20.36224 0.02048 0.4096 0.12288 0.31744 0.2816 0.24576 0.42496 0.03584 0.28672v6.14912h-22.54336l0.01024-6.26176z m13.1328 46.13632l-4.352-1.38752-2.80576 1.7408-1.64352 1.90976c-0.41472 0.4096-0.82432 0.83456-1.27488 1.26976-0.9728 0.94208-2.03264 1.96608-3.072 2.93888v-24.16128h4.57216l1.25952 4.38272 1.92512 4.78208 2.44736 4.41344 2.944 4.11136z m-20.73088-15.54944v14.74048l-4.352-1.36704-2.6112 1.45408c-1.09568 1.19808-2.2016 2.44224-3.3792 3.64032l-2.35008 2.40128v-19.11296h9.10848l0.67072-0.10752 0.64-0.22528 2.27328-1.42336z m0-15.21152v10.89536l-2.304-1.2544-0.64512-0.20992-0.63488-0.06144h-9.09824v-8.07424h7.44448l0.73728-0.09216 0.68096-0.17408 0.67072-0.32256 0.5376-0.42496 0.43008-0.5632 1.03424-2.15552-1.03424-2.19648-0.43008-0.56832-0.5376-0.44032-0.63488-0.32256-0.7168-0.24576-0.73728-0.07168h-12.9536l2.70336-6.26176h12.34944c0.4864-0.10752 0.96256-0.128 1.41312-0.31744l1.73056-0.73216v8.73472l-1.152 2.41152 1.14688 2.44736z m33.7152 13.07648c-2.06848 2.2784-4.10112 4.52096-6.272 6.75328l-0.68096 0.6912-2.19136 2.1248-1.79712-3.36384a54.44608 54.44608 0 0 1-1.59232-3.56864l-0.91648-2.6368h13.45024z m5.21728 3.99872l-0.15872-0.76288-0.32768-0.64-0.43008-0.65024-0.70144-0.74752-3.66592-0.9728 2.34496-1.9456 0.7168-0.8704 0.5376-0.96256 0.35328-1.09568 0.10752-1.11616v-25.41056l-0.10752-1.14688-0.34304-1.09568-0.54784-0.99328-0.70656-0.86016-0.86528-0.74752-1.00864-0.52736-1.08544-0.32256-1.10592-0.10752h-26.14272l-1.14688 0.10752-1.11104 0.32256-0.98304 0.52736-0.8704 0.74752-0.70144 0.82432-1.12128 2.304-1.60768-0.79872-0.68096-0.20992-0.72704-0.0768h-9.94304c0.12288-0.7936 0.28672-1.57696 0.48128-2.37056l0.0512-0.32256 0.08192-0.7424-0.03584-0.7936-0.1792-0.76288-0.32256-0.62976-0.47104-0.60416-0.5888-0.4608-0.69632-0.36864-0.81408-0.3072-0.90624-0.09216-0.78336 0.06144-0.73728 0.1792-0.66048 0.3328-0.6144 0.44032-0.48128 0.59904-0.38912 0.67072-0.24576 0.76288-0.83968 3.33824-0.9728 3.16928-1.05472 3.0208-1.18784 2.92352-1.32608 2.82624-1.4336 2.688-1.53088 2.54464-1.72032 2.5344-0.45568 0.77312-0.32768 0.81408-0.18944 0.80896v0.79872l0.14336 0.80896 0.34816 0.73216 0.50688 0.62976 0.78336 0.74752 3.12832 0.53248 2.95424-1.87392 1.46432-1.97632h1.81248v8.07424h-6.76352l-0.68096 0.09216-0.64 0.1792-0.62976 0.35328-0.50176 0.44544-0.39424 0.55808-0.27648 0.67072-0.13824 0.69632-0.04608 0.79872 0.04608 0.75776 0.13824 0.72192 0.27648 0.61952 0.40448 0.60416 0.49152 0.42496 0.60928 0.3328 0.64512 0.22528 0.68096 0.10752h6.77376l0.02048 23.31648 0.2816 1.96608 0.2304 0.80896 0.29184 0.7424 0.42496 0.6912 0.50688 0.56832 0.59392 0.512 0.68096 0.3328 0.7168 0.21504 0.74752 0.09216 0.78848-0.0512 0.75776-0.1792 0.768-0.26624 1.6896-0.8704 2.6368-1.90976 2.6624-2.176c1.41312-1.34656 2.78528-2.62144 4.096-3.95776l2.41152-2.49856v4.992l0.15872 2.06848 0.4096 1.78688 0.7168 1.4336 1.03936 1.13664 1.32096 0.62976 1.60256 0.19968 1.67936-0.27136 1.90976-0.62976 2.432-1.52064 2.59072-2.00704c1.45408-1.29024 2.88256-2.59584 4.29056-3.87072l1.60768-1.57696 0.512-0.81408 0.38912-0.7424 0.24576-0.8192 0.29184-3.0208 2.85696 3.1488 3.83488 3.33824 4.31104 2.99008 4.864 2.65728 3.2768 0.71168 2.73408-1.792 0.29184-3.29216-2.25792-2.37056-3.80928-2.06848-3.3024-2.11968-2.90816-2.23744-1.87392-1.64352c1.8176-1.73056 3.70688-3.45088 5.43232-5.1968 0.9472-0.94208 1.83296-1.89952 2.70336-2.83648l0.61952-0.68608 0.45568-0.66048 0.32256-0.6912 0.14848-0.72192 0.04096-0.70656z m45.7472-40.0896l-0.82944 0.07168-0.75776 0.21504-0.6912 0.31744-0.64 0.46592-0.49152 0.5632-0.3584 0.7424-0.20992 0.74752-0.06144 0.82944 0.06144 0.8448 0.20992 0.7936 0.3584 0.71168 0.512 0.59904 0.61952 0.42496 0.6912 0.31744 0.75776 0.15872 0.8192 0.128h36.352l0.80896-0.05632 0.82944-0.19456 0.75776-0.3072 0.66048-0.45568 0.53248-0.57856 0.38912-0.7168 0.25088-0.82944 0.07168-0.8448-0.1024-0.8704-0.22016-0.7424-0.39936-0.71168-0.52224-0.5632-0.68096-0.49664-0.7424-0.3072-0.82944-0.2048-0.80896-0.06144h-36.33664v0.01024z m-17.024-0.95232l-2.28864 4.14208-2.46784 3.9424-2.8416 3.80416-3.10784 3.7632-0.48128 0.62464-0.3584 0.70144-0.22016 0.74752-0.02048 0.74752 0.09216 0.75776 0.32256 0.72192 0.41984 0.66048 0.6912 0.7936 2.90816 1.04448 2.64192-1.3824 3.13856-3.85536 2.93888-4.06528 2.87232-4.48512 2.88256-4.94592 0.4608-3.20512-2.11968-2.60608-3.18976-0.18944-2.27328 2.28352z m-5.62688 42.09664l2.19136-2.59584v26.6496l0.09216 0.84992 0.19968 0.79872 0.29184 0.72192 0.4608 0.66048 0.54784 0.53248 0.70144 0.4096 0.77824 0.24576 0.83968 0.07168 0.90112-0.07168 0.79872-0.24576 0.66048-0.39424 0.61952-0.54272 0.4096-0.66048 0.30208-0.72192 0.19968-0.79872 0.08192-0.84992v-37.66784l2.1504-3.64544c1.23904-2.3552 1.3312-3.34848 1.46944-5.94432l-2.26816-2.51392-3.17952 0.0768-2.18112 2.37056-1.29024 2.52928-1.25952 2.3296-1.36192 2.23232-1.408 2.21696-3.06176 4.224-3.42016 4.10624-1.26976 2.89792 1.19808 3.04128 3.00032 1.13152 2.80576-1.44384z m15.5904-20.2496l0.08192 1.3056 0.20992 0.81408 0.3584 0.6912 0.49152 0.61952 0.5888 0.4096 0.70144 0.3328 0.75776 0.17408 0.78848 0.13824h27.392v29.89056l-0.07168 1.08544-0.10752 0.94208-0.25088 0.75776a4.5568 4.5568 0 0 1-0.55808 0.84992c-0.14848 0.13824-0.33792 0.29696-0.5376 0.49664l-0.72192 0.24576-0.56832 0.15872-1.12128 0.10752c-0.68096 0-1.38752-0.06144-2.05824-0.08704l-3.35872-0.55296-7.34208-1.77152c-0.38912-0.06656-0.7424-0.13312-1.13152-0.1536h-0.4096l-0.91136 0.22528-0.54784 0.25088-1.87904 2.29888 0.1024 3.55328 2.65216 1.8432 3.67104 0.96768 3.2512 0.71168 2.99008 0.52736 2.72896 0.35328 2.44224 0.17408 2.21184-0.03072 1.92-0.24576 1.72032-0.42496 1.46944-0.64512 1.26976-0.8448 1.1008-1.13152 0.82944-1.36704 0.64-1.57696 0.4608-1.77152 0.24064-2.01216 0.08192-2.18112v-30.65344h7.7824l0.73216-0.10752 0.72192-0.17408 0.62976-0.31744 0.62976-0.42496 0.48128-0.60416 0.32768-0.67072 0.19968-0.7936 0.07168-0.86528-0.07168-0.84992-0.19968-0.75776-0.32768-0.71168-0.47104-0.54784-0.60928-0.49664-0.64-0.31744-0.7424-0.19968-0.75776-0.0512h-43.31008l-0.80896 0.02048-0.77824 0.2304-0.68096 0.30208-0.60928 0.48128-0.47104 0.55808-0.3584 0.6912-0.31744 1.13152z m-240.22016-13.42976h6.53824l-2.90304 13.76256-0.24576 2.50368 0.05632 1.40288c0.09216 0.67072 0.21504 1.36192 0.37888 1.9968 0.22528 0.67072 0.512 1.31072 0.75776 1.91488 0.7168 1.52064 1.41312 3.06176 2.05824 4.608l0.68096 1.8432 0.896 3.47136a24.576 24.576 0 0 1 0.26624 1.78688v1.29024l-0.07168 0.68608-0.17408 0.75776a5.29408 5.29408 0 0 1-0.3328 0.74752 6.74304 6.74304 0 0 1-0.64512 0.61952c-0.31232 0.05632-0.57856 0.12288-0.88064 0.1536l-0.21504 0.04096-2.91328-0.49664-0.768 0.02048-0.7168 0.17408-1.7664 0.75776v-38.0416z m50.69824 14.50496l0.24576-1.54112-0.13312-2.15552 4.68992 2.42176 3.24608 0.2304 2.57024-2.29376 0.16384-3.34336-2.36544-2.16064-3.10784-1.3568-2.79552-1.40288-2.61632-1.57184-2.49856-1.69472-2.3808-1.85856-2.21696-1.96608-2.07872-2.14016-2.94912-3.46624-1.06496-0.8704-1.18272-0.53248-1.24928-0.13312-1.21856 0.28672-1.17248 0.68608-1.08544 0.9728c-1.34144 1.67424-2.70336 3.34336-4.09088 4.9152l-0.62464 0.75776-1.96608 2.03264-1.98144 1.92512-2.11456 1.85856-2.19136 1.8432-6.0416 4.31616 1.49504-6.95296 0.1024-0.02048 0.32256-2.81088 0.02048-1.73056-0.22016-1.64864-0.1536-0.51712-0.23552-0.45568-0.35328-0.53248-0.47616-0.42496-0.56832-0.31744-1.28-0.42496-1.50016-0.1792-11.68384-0.02048-1.37728 0.07168-1.24928 0.30208-1.0752 0.50176-0.83968 0.75776-0.64512 0.80896-0.39936 1.0496-0.22016 1.0752-0.05632 1.13664v60.32896l0.05632 0.7168 0.21504 0.70144 0.33792 0.66048 0.50688 0.5632 0.60928 0.42496 0.65536 0.31744 0.75776 0.15872 0.83968 0.05632 0.82432-0.05632 0.75776-0.18944 0.68096-0.3072 0.59904-0.42496 0.4608-0.5632 0.34304-0.64 0.19968-0.70144 0.06656-0.7168v-14.44864l1.9456 0.70656c0.49664 0.14336 1.01376 0.29184 1.52064 0.3584 0.92672 0.1536 1.82784 0.26624 2.72384 0.22528 0.36864 0 0.72704-0.03072 1.05472-0.03072l1.03424-0.128 1.03424-0.22528 1.01376-0.31744 0.95232-0.44544 0.92672-0.53248 0.83456-0.6912 0.76288-0.7424 0.63488-0.82944 0.54784-0.9216 0.41472-0.95744 0.34304-0.9728 0.22528-1.00864 0.24576-2.15552 0.04096-1.08032-0.0768-1.35168a35.06176 35.06176 0 0 0-0.39424-2.61632c-0.28672-1.23392-0.62464-2.40128-0.96768-3.62496l-1.35168-3.59424-2.21696-4.98688-0.26624-1.62816 0.35328-3.51744 2.11968 1.6384 0.70144 0.31744 0.78336 0.1792h0.80384l0.81408-0.15872 0.82432-0.32256 0.8192-0.44032 2.83648-1.8944 0.29184 2.00192c0.14336 0.4096 0.27648 0.75776 0.4352 1.05984l0.43008 0.58368 0.52736 0.48128 0.61952 0.34816 0.70656 0.19456 0.74752 0.10752h7.87968l-2.32448 2.13504-0.38912 0.66048-0.27136 0.6912-0.09728 0.7424v0.77824l0.14848 0.80896c0.58368 2.39104 1.152 4.79744 1.6896 7.2192 0.49664 2.48832 0.98816 5.11488 1.42336 7.61856l0.74752 5.44768 0.19968 0.80896 0.27136 0.75776 0.35328 0.69632 0.51712 0.61952 0.59904 0.47616 0.68096 0.3328 0.81408 0.15872 0.8704-0.01536 0.75776-0.1792 2.23744-1.01888-0.32256 2.38592v0.77312l0.1536 0.77824 0.88576 2.05312h-13.76768l2.76992-2.5856 0.41472-0.6144 0.26624-0.73216 0.12288-0.77824v-0.8448a46.55104 46.55104 0 0 0-0.384-2.26816c-0.28672-1.30048-0.64512-2.59584-0.96768-3.87072l-0.83968-2.688-0.91136-2.688-1.05472-2.73408-2.4576-5.66784-1.35168-2.90816-0.48128-0.74752-0.49664-0.61952-0.60416-0.53248-0.62464-0.384-0.73216-0.29184-0.75264-0.07168-0.77312 0.07168-0.72704 0.29184-0.70144 0.3328-0.57344 0.49152-0.4608 0.62464-0.29184 0.70144-0.10752 0.73216c0.14336 2.54976 1.75104 5.10976 2.74944 7.48032l2.28352 5.78048 1.6384 5.02784 1.28512 4.79232 0.24576 0.7936 0.34816 0.73216 0.4096 0.63488 2.72384 2.54976H321.3312l-0.70656 0.06656-0.69632 0.1792-0.64 0.31744-0.54272 0.44544-0.45056 0.5632-0.31744 0.64-0.22016 0.70656-0.08192 0.83456 0.06144 0.80896 0.18944 0.71168 0.2816 0.65024 0.43008 0.58368 0.49664 0.44544 0.62976 0.3328 0.68096 0.1792 0.74752 0.11776h40.15616l0.70656-0.11776 0.64512-0.21504 0.5376-0.32256 0.52736-0.42496 0.37376-0.5632 0.29184-0.65536 0.16896-0.65536 0.13312-0.82944-0.13312-0.84992-0.16896-0.6912-0.29184-0.60416-0.37376-0.57856-0.52736-0.42496-0.56832-0.35328-0.65024-0.20992-0.71168-0.08704H351.0272c0.43008-0.84992 0.91648-1.69984 1.3056-2.51392l0.14336-0.30208 2.27328-6.46144 1.00864-3.23584 0.93184-3.27168 0.7936-3.30752 0.68096-3.37408 0.5376-3.39968 0.39936-3.46624 0.01536-0.90624-0.06144-0.8448-0.18944-0.7936-0.32768-0.69632-0.4864-0.67072-0.57344-0.49664-0.73728-0.37376-0.81408-0.2048-2.16576-0.14848-1.37728 1.66912c-0.29184 0.44032-0.49664 0.9216-0.68096 1.408l-0.80384 4.66944-1.34144 6.97344-0.73728 3.23584-2.86208 10.624a304.17408 304.17408 0 0 0-1.13152-9.00096 267.37664 267.37664 0 0 0-0.93696-5.78048l-1.14176-5.20704-1.32096-4.89472-0.26624-0.71168-2.21696-3.27168h14.81216l1.14176-1.72032 0.29184-0.59904z m-1.41824 2.61632l-0.18432-0.01536 0.18432-0.26112h0.21504l-0.21504 0.27648z m-24.2432-8.02816l2.88256-2.62144 1.64352-1.7152 1.37216-1.60768 2.32448-3.06688c0.19968-0.18944 0.34304-0.40448 0.54272-0.59904l1.12128-1.2544 2.30912 2.18112 1.41312 1.57696 1.7152 1.59232c0.94208 0.79872 1.89952 1.58208 2.85184 2.2784 1.52064 1.13664 3.05664 2.18112 4.59264 3.24096h-22.76864v-0.00512z m-95.97952 0.3584l0.03072-10.368 0.10752-0.35328 0.19968-0.27648 0.29184-0.25088 0.3328-0.10752 0.36864-0.04096 32.03584 0.04096 0.42496 0.13312 0.32256 0.28672 0.256 0.54272v10.97216l-1.10592 0.54784-32.22016-0.01536c-0.1536-0.07168-0.32256-0.15872-0.53248-0.23552l-0.24576-0.2816-0.22528-0.35328-0.04096-0.24064z m-12.21632 19.94752l2.47808 1.62304 0.64512 0.23552 0.65024 0.03072h19.26656l-2.4832 2.85696-2.29376 2.20672-2.65728 2.28352-3.04128 2.28352-3.4048 2.3296-3.77856 2.39104-5.38624 3.1488v-19.38944h0.00512z m4.63872-34.07872v16.92672l0.09728 1.13152 0.34816 1.1008 0.54272 0.98304 0.70656 0.88576 0.86016 0.68608 0.98816 0.57344 1.1008 0.3328 1.15712 0.11776h14.78656v6.1184h-21.41696l-0.81408 0.09216a4.02432 4.02432 0 0 0-1.07008 0.49664l-1.92 1.73568v-17.74592c0.55808-1.44896 1.152-2.94912 1.664-4.46976l2.9696-8.96512z m33.76128 39.52128l-3.04128-3.55328h20.99712l0.63488-0.03072 0.68096-0.23552 0.55808-0.3328 0.48128-0.44032 0.39424-0.56832 0.27648-0.59904 0.15872-0.65536 0.04096-0.63488-0.04096-0.74752-0.15872-0.6144-0.27648-0.61952-0.36864-0.53248-0.50688-0.45056-0.57344-0.37888-0.6656-0.20992-0.65024-0.05632h-23.48032v-6.1184h15.54944l1.10592-0.11776 1.11104-0.37376 0.96768-0.53248 0.88064-0.68608 0.70656-0.88576 0.5376-0.96768 0.36352-1.11616 0.10752-1.11104v-15.89248l-0.10752-1.13152-0.36352-1.1008-0.5376-0.98816-0.70656-0.8704-0.88064-0.72192-1.00352-0.54784-1.0752-0.32256-1.10592-0.10752h-37.9648l-1.15712 0.10752-1.09056 0.32256-0.9984 0.54784-0.88064 0.72192-1.58208 1.8944-0.90112-2.7904-0.27136-0.5632-2.66752-1.76128-1.16736 0.02048-0.84992 0.1792-0.80384 0.36864-0.70144 0.51712-0.59392 0.63488-0.47104 0.77824-0.36864 0.88064-0.24576 0.9728-0.75776 3.68128-0.91136 3.48672-1.08544 3.29728-1.28512 3.15904-1.45408 2.99008-1.65376 2.79552-1.82272 2.6368-2.02752 2.57024-0.4864 0.7424-0.30208 0.7424-0.22016 0.77824-0.01536 0.82944 0.09216 0.77824 0.256 0.75776 0.41472 0.7424 0.6144 0.89088 2.86208 1.14688 4.03456-2.1248v34.24768l0.08192 0.83456 0.2048 0.82944 0.3328 0.70656 0.45056 0.61952 0.5888 0.53248 0.70656 0.36864 0.77824 0.21504 0.90112 0.09216 0.8448-0.09216 0.78336-0.21504 0.68096-0.36864 0.6144-0.53248 0.44032-0.65536 0.34304-0.67072 0.19456-0.81408 0.12288-0.83456v-3.48672l2.50368 1.36704 0.68096 0.1536h0.68096l0.70144-0.13312 0.68096-0.25088 3.73248-2.06848 3.39968-2.11968 3.1232-2.16064 2.8672-2.19136 2.56-2.26304 4.29568-4.352v18.3552l0.09216 0.73216 0.22016 0.72192 0.33792 0.58368 0.45056 0.55296 0.57344 0.4352 0.65536 0.3072 0.7424 0.19456 0.7936 0.07168 0.768-0.07168 0.70144-0.19456 0.64-0.3072 0.55808-0.4352 0.44544-0.55296 0.32256-0.58368 0.2048-0.72192 0.11776-0.73216v-18.97984l3.0208 3.1488 2.69824 2.47808 2.89792 2.38592 3.0976 2.33472 3.30752 2.23232 3.52768 2.1248 3.9168 2.17088 2.90304 0.1792 2.36032-2.35008 0.54272-3.3792-1.75104-2.23232-4.61312-2.21184-4.03456-2.18112-3.65056-2.24256-3.27168-2.29888-2.87744-2.37056-2.53952-2.40128z m376.28928-9.92256l-0.13824-1.19808-0.32768-1.11104-0.56832-1.024-0.71168-0.89088-0.91136-0.70656-0.9984-0.53248-1.11104-0.35328-1.20832-0.10752-1.17248 0.10752-1.11104 0.35328-1.00864 0.53248-0.86016 0.72704-0.74752 0.8704-0.53248 1.024-0.3584 1.11104-0.1024 1.19808 0.1024 1.2032 0.3584 1.09568 0.53248 0.99328 0.74752 0.90624 0.86016 0.72192 1.00864 0.56832 1.11104 0.32256 1.17248 0.11776 1.20832-0.11776 1.11104-0.32256 0.9984-0.56832 0.91136-0.70144 0.71168-0.92672 0.56832-0.95744 0.32768-1.13664 0.13824-1.19808z m-228.58752 0l-0.14336-1.19808-0.34816-1.11104-0.5376-1.024-0.72704-0.89088-0.90624-0.70656-1.00864-0.53248-1.10592-0.35328-1.18272-0.10752-1.20832 0.10752-1.10592 0.35328-1.01888 0.53248-0.86016 0.72704-0.73728 0.8704-0.5376 1.03936-0.34304 1.09568-0.12288 1.19808 0.12288 1.2032 0.34304 1.09568 0.5376 0.99328 0.73728 0.90624 0.86016 0.72192 1.01888 0.56832 1.10592 0.32256 1.20832 0.11776 1.18272-0.11776 1.10592-0.32256 1.00864-0.56832 0.90624-0.72192 0.72704-0.90624 0.5376-0.99328 0.34816-1.09568 0.14336-1.2032z" fill="#DE5411" p-id="2510"></path><path d="M1018.53184 304.08704l-1.07008-7.05536-1.77152-6.8096-2.3808-6.54336-3.00032-6.21568-3.56864-5.85728-4.08064-5.45792-4.56192-5.0432-5.0688-4.5824-5.46816-4.1216-5.85216-3.52256-6.21056-3.00032-6.54848-2.39104-6.81984-1.73568-7.05024-1.1008-6.95808-0.34816H75.88352l-6.97856 0.34816-7.05024 1.1008-6.81984 1.73568-6.54336 2.39104-6.21056 3.00032-5.86752 3.52256-5.47328 4.1216-5.03296 4.5824-4.57728 5.0432-4.096 5.45792-3.54304 5.85728-3.00544 6.21568-2.3808 6.54336-1.77152 6.8096-1.0752 7.07584L5.12 311.07584v401.8688l0.3328 6.94784 1.0752 7.07584 1.77152 6.8096 2.3808 6.52288 3.00544 6.21568 3.54304 5.87264 4.096 5.44256 4.57728 5.04832 5.0432 4.5824 5.46304 4.11136 5.85728 3.55328 6.22592 2.97984 6.528 2.41152 6.8096 1.75104 7.05024 1.06496 7.00416 0.36864H948.1216l6.97856-0.36864 7.05024-1.06496 6.79936-1.75104 6.54848-2.41152 6.21056-2.97984 5.85216-3.55328 5.46816-4.11136 5.0688-4.5824 4.56192-5.03808 4.08064-5.44256 3.56864-5.87264 3.00032-6.21568 2.3808-6.52288 1.77152-6.8096 1.07008-7.05536 0.34816-6.96832v-401.8688l-0.34816-6.99904z m-10.40384 408.59136c0 33.2544-26.99776 60.2624-60.288 60.2624H76.12928c-33.26976 0-60.2624-27.00288-60.2624-60.2624V311.34208c0-33.29536 26.99264-60.27776 60.2624-60.27776h871.71072c33.29024 0 60.288 26.98752 60.288 60.27776v401.33632z" fill="#DE5411" p-id="2511"></path><path d="M842.17856 452.10624c0 5.67808-1.05984 10.12224-8.24832 13.76256a1584.09728 1584.09728 0 0 1-23.92064 11.4432c-8.6016-4.0448-18.11968-8.56064-23.92064-11.4432-7.18848-3.64032-8.25856-8.07936-8.25856-13.76256v-6.13376h64.34816v6.13376zM359.78752 393.94304v101.08928h126.09024V393.94304H359.78752z m113.2288 28.49792H435.1488v11.46368h32.43008v15.67232H435.1488v16.59392h18.84672v-7.39328h19.0208v24.39168H372.67968V466.176h37.80096v-16.59392h-32.39936v-15.67232h32.39936v-11.46368h-37.80096v-17.03424h100.33664v17.02912zM204.82048 468.75136h-48.5888V411.4944h48.5888v57.25696zM282.58816 468.75136H234.0352V411.4944h48.55296v57.25696z" fill="#DE5411" p-id="2512"></path><path d="M947.84 271.15008H76.12928a40.18688 40.18688 0 0 0-40.18176 40.192v273.44896a40.192 40.192 0 0 0 40.18176 40.20736h871.71072a40.192 40.192 0 0 0 40.18176-40.20736V311.34208a40.18176 40.18176 0 0 0-40.18176-40.192z m-224.98816 126.40256a16.47616 16.47616 0 0 1 16.48128-16.49152h56.71936v-7.72608a3.1744 3.1744 0 0 1 3.17952-3.22048h21.50912c1.76128 0 3.2 1.41312 3.2 3.22048v7.72608h56.7296a16.4864 16.4864 0 0 1 16.49152 16.49152v10.73664a3.24608 3.24608 0 0 1-3.22048 3.20512h-14.92992a3.21024 3.21024 0 0 1-3.2-3.20512v-9.35424h-131.6096v9.35424a3.2256 3.2256 0 0 1-3.2 3.20512h-14.96064a3.20512 3.20512 0 0 1-3.18976-3.20512v-10.73664zM309.14048 470.74816a18.78528 18.78528 0 0 1-18.80064 18.7648H234.0352v26.41408c0 1.78688-1.4336 3.2-3.20512 3.2h-22.82496a3.16928 3.16928 0 0 1-3.18464-3.2v-26.41408h-56.32a18.7648 18.7648 0 0 1-18.78016-18.7648V409.4464a18.80064 18.80064 0 0 1 18.78016-18.7904h56.32v-16.768a3.1744 3.1744 0 0 1 3.18464-3.22048h22.82496c1.77152 0 3.20512 1.41312 3.20512 3.22048V390.656h56.30464a18.81088 18.81088 0 0 1 18.80064 18.7904v61.30176z m201.78432 25.45152a18.78528 18.78528 0 0 1-18.7648 18.7904H353.50528a18.80064 18.80064 0 0 1-18.78528-18.7904V394.28096a18.78528 18.78528 0 0 1 18.78528-18.7648h138.65472a18.76992 18.76992 0 0 1 18.7648 18.7648v101.91872z m194.4832-10.42944a3.21536 3.21536 0 0 1-3.18976 3.20512h-70.14912v26.9568a3.18464 3.18464 0 0 1-3.2 3.2h-21.50912a3.16928 3.16928 0 0 1-3.17952-3.2v-26.9568h-70.17984a3.2256 3.2256 0 0 1-3.17952-3.20512v-14.31552c0-1.74592 1.42848-3.2 3.17952-3.2h70.17984V398.27456h-64.45056a3.21024 3.21024 0 0 1-3.21024-3.22048V381.4912a3.1744 3.1744 0 0 1 3.21024-3.14368h156.77952c1.76128 0 3.21024 1.41312 3.21024 3.14368v13.56288a3.2256 3.2256 0 0 1-3.21024 3.22048h-64.44032v69.98016h70.14912c1.77152 0 3.18976 1.45408 3.18976 3.2v14.31552z m-158.68928-76.45696h21.61152c2.6112 0 4.59776 1.34656 5.44256 2.9952l21.5296 41.9072c0.82944 1.6384-0.2304 2.94912-1.8688 2.94912h-21.64224c-2.57024 0-4.57216-1.31072-5.43232-2.94912l-21.50912-41.9072c-0.83968-1.64864 0.1792-2.9952 1.8688-2.9952z m144.68096 2.9952l-21.5296 41.9072c-0.8704 1.6384-2.87232 2.94912-5.45792 2.94912h-21.61152c-1.64864 0-2.688-1.31072-1.85856-2.94912l21.53984-41.9072c0.84992-1.64864 2.83136-2.9952 5.43232-2.9952h21.632c1.64352 0 2.65216 1.34656 1.85344 2.9952z m206.92992 30.464a3.24096 3.24096 0 0 1-3.22048 3.2h-27.5712v8.61184c0 10.08128-4.608 19.64032-17.00864 25.65632-4.64896 2.2784-10.48064 5.0944-16.64 8.02304 10.9824 4.49536 20.67968 6.56896 30.94016 6.56896h26.08128c1.8176 0 3.27168 1.42848 3.27168 3.23072v13.73184a3.2768 3.2768 0 0 1-3.27168 3.27168h-25.62048c-10.27072 0-22.8096-2.14016-33.41824-6.1184-4.31104-1.59232-12.49792-5.21728-21.8624-9.48224-9.37984 4.26496-17.52064 7.88992-21.84192 9.48224-10.6496 3.97824-23.168 6.1184-33.42848 6.1184h-25.66144a3.31264 3.31264 0 0 1-3.29216-3.27168v-13.73184c0-1.80224 1.50016-3.23072 3.29216-3.23072h26.07104c10.2912 0 19.99872-2.0736 30.99136-6.56896a1930.22464 1930.22464 0 0 1-16.70144-8.02304c-12.38016-6.016-16.96768-15.57504-16.96768-25.65632v-8.61184h-27.60192a3.21536 3.21536 0 0 1-3.2-3.2v-13.89568c0-1.74592 1.41824-3.21536 3.2-3.21536h27.60192v-11.78112c0-1.792 1.46944-3.27168 3.27168-3.27168h18.76992c1.83808 0 3.31776 1.47968 3.31776 3.27168v11.78112h64.34816v-11.78112c0-1.792 1.48992-3.27168 3.3024-3.27168h18.76992a3.2768 3.2768 0 0 1 3.29216 3.27168v11.78112h27.5712c1.77152 0 3.22048 1.46944 3.22048 3.21536v13.89568z" fill="#DE5411" p-id="2513"></path></svg>