<?xml version="1.0" standalone="no"?><!DOCTYPE svg PUBLIC "-//W3C//DTD SVG 1.1//EN" "http://www.w3.org/Graphics/SVG/1.1/DTD/svg11.dtd"><svg t="1586402686007" class="icon" viewBox="0 0 1024 1024" version="1.1" xmlns="http://www.w3.org/2000/svg" p-id="3373" xmlns:xlink="http://www.w3.org/1999/xlink" width="200" height="200"><defs><style type="text/css"></style></defs><path d="M510.78144 422.79424a2209.536 2209.536 0 0 1-136.30976 235.33056C245.5552 665.9072 119.63392 685.28128 5.12 716.53888c163.59424-178.8416 299.02336-411.83744 370.48832-642.97472h0.27648c30.98624 114.54464 77.28128 233.472 134.89664 349.23008z" fill="#B11E23" p-id="3374"></path><path d="M374.38976 658.1248a2212.4288 2212.4288 0 0 1 272.49152 0.60928c72.00768 108.46208 152.58624 208.21504 237.696 291.70176-237.10208-53.3248-507.88864-54.67648-744.98048-1.08544l-0.26624-0.3328 4.00896-3.94752 3.90656-3.93216 3.88608-3.96288 3.85536-4.00896 3.95776-4.01408 3.88608-4.25472 3.82464-3.93728 3.95776-4.096 3.88096-4.1984 3.82464-4.0704 3.88608-4.1728 3.8912-4.20864 3.7888-4.16256 3.85024-4.24448 3.85536-4.3264 3.82464-4.224 3.79904-4.29568 3.82464-4.34688 3.82464-4.25984 3.74784-4.29568 3.82464-4.43392 3.7632-4.3776 3.80928-4.40832 3.74784-4.3264c50.0992-59.1872 98.05312-123.27936 142.63296-190.3872z" fill="#6E1318" p-id="3375"></path><path d="M646.88128 658.73408a2204.91264 2204.91264 0 0 1-136.09984-235.86816c57.6-115.74784 103.60832-234.48576 133.66784-349.30176 73.56416 232.09472 208.77312 466.78528 374.43072 644.20352l-0.14336 0.29696c-115.2-31.07328-242.0736-50.95424-371.85536-59.33056z" fill="#D51523" p-id="3376"></path><path d="M646.88128 658.73408c129.78176 8.37632 256.65024 28.25728 371.85536 59.33056l-134.15936 232.3712c-85.10976-83.48672-165.6832-183.23968-237.696-291.70176z" fill="#B11E23" p-id="3377"></path><path d="M374.47168 658.1248c-71.4496 107.51488-151.30112 206.8992-235.14112 290.88768L5.12 716.53888c114.51392-31.2576 240.4352-50.63168 369.35168-58.41408z" fill="#D51523" p-id="3378"></path><path d="M644.44928 73.56416c-30.05952 114.816-76.06272 233.5488-133.66784 349.23008C453.16608 307.03616 406.87104 188.1088 375.8848 73.56416h268.56448z" fill="#6E1318" p-id="3379"></path></svg>