<?xml version="1.0" standalone="no"?><!DOCTYPE svg PUBLIC "-//W3C//DTD SVG 1.1//EN" "http://www.w3.org/Graphics/SVG/1.1/DTD/svg11.dtd"><svg t="1586402678263" class="icon" viewBox="0 0 1024 1024" version="1.1" xmlns="http://www.w3.org/2000/svg" p-id="3127" xmlns:xlink="http://www.w3.org/1999/xlink" width="200" height="200"><defs><style type="text/css"></style></defs><path d="M470.0416 717.07136l137.47712-347.264 143.36 347.264H470.0416z m-287.7952 0l137.47712-347.264 143.35488 347.264h-280.832z m714.2144-79.22688h107.32544l-5.87776 19.8144h-92.06784l-9.37984-19.8144z m-20.91008-48.95232h137.472l-3.43552 20.98688h-124.66688l-9.3696-20.98688z m-20.9664-48.92672h164.2752l-2.27328 20.9664h-152.65792l-9.344-20.9664z m-19.79904-48.9216h184.07424v20.93568h-175.91296l-8.16128-20.93568z m-21.02272-48.9728h200.44288l2.37568 21.01248h-194.6624l-8.15616-21.01248z m-20.9152-48.9472h212.02432l4.71552 21.00224h-207.46752l-9.27232-21.00224zM512.01536 5.12h20.95616l22.13888 2.3296 20.992 1.152 19.79392 3.47648 20.99712 3.52256 19.79904 4.65408 19.79392 5.82144 19.79392 5.8112 9.30816 3.51232 9.33888 3.52256 18.64704 8.15104 18.67776 8.15616 17.41312 9.3184 17.50016 9.33888 17.41824 10.46016 16.40448 11.66336 16.26624 11.65824 15.21664 11.65824 15.104 12.80512 15.1552 13.97248 13.9264 13.97248 14.0288 14.00832 12.84096 15.15008 5.80096 8.1152 5.87264 8.19712 12.80512 16.28672 10.46528 16.3072 10.46016 16.34816 10.5216 17.46432 8.15616 18.6624 9.30816 17.46432 7.05536 18.66752 6.92736 19.7632 6.99904 18.64192h-216.77568l-133.98016-313.41568L507.33056 404.7872 360.48384 55.2192 101.8624 722.90816l117.64736 146.83136H818.432l109.58848-159.63648-10.50112-24.48896h71.0144l-6.9888 18.64192-8.1152 17.47456-8.192 17.47968-8.1152 16.31744-10.46016 17.46944-9.33888 16.33792-11.67872 15.12448-10.42944 15.16544-11.6736 15.15008-12.84096 15.15008-12.80512 12.80512-13.96736 13.97248-14.0544 12.8512-13.9264 12.78464-15.11424 11.68896-15.1808 11.648-15.1808 10.42432-16.3072 10.54208-16.30208 9.2928-17.41824 9.33888-17.52576 8.15104-17.53088 6.99904-18.57024 7.00928-17.50016 6.9632-18.66752 5.82144-19.80416 4.66944-18.64192 4.69504-19.7632 3.47648-9.3696 1.152-10.50112 1.16224-19.80416 2.36032-19.7888 1.14688h-46.53568l-25.67168-2.33984-25.70752-3.4816-25.6768-4.68992-24.38656-5.80096-23.30112-5.8368-23.36256-8.17152-23.30112-9.3184-22.07744-10.4704-22.17472-10.496-10.496-6.97856-10.46016-5.82144-21.02272-12.84096-19.79904-13.98272-19.79904-15.11936-9.30816-8.17152-8.18688-8.15616-9.33888-8.18176-8.08448-8.16128-17.48992-17.4592-16.36864-18.6368-6.93248-9.3184-7.06048-10.51136-15.08352-19.78368-5.80608-9.30304-6.99392-10.5216-5.87264-10.50112-5.84704-11.65824-11.64288-20.9152-10.46528-23.33696-8.15104-22.13888-8.14592-24.46336-6.99392-23.34208-3.5328-12.76416-2.31424-11.64288-2.30912-12.85632-2.37568-12.8256-3.50208-24.4992L6.28224 537.6l-1.15712-12.82048v-12.80512l1.15712-25.6256 1.11616-25.64096 3.50208-25.60512 4.6848-25.67168 5.84704-24.45312 6.99392-23.33696 8.14592-23.27552 8.15104-23.30112 10.46528-22.16448 11.64288-22.10304 5.84704-10.51136 5.87264-10.51136 12.8-20.94592 15.08352-19.80928 13.99296-19.79392 8.21248-9.2928 8.15104-8.20736 8.15104-9.3184 9.33888-8.14592 17.42336-17.47968 17.49504-16.31744 10.49088-6.99904 9.30816-7.00928 19.79904-15.1296 10.52672-5.79584 10.496-7.01952 10.46016-5.83168 10.496-5.83168 22.17472-11.63776 22.07744-10.48576 23.30112-9.33888 23.36256-6.9888 23.30112-6.97856 12.76928-3.52768 11.61728-2.29376 12.86656-2.3296 12.80512-2.31936 25.70752-3.50208 25.67168-1.2032L499.17952 5.12h12.83584z" fill="#E50012" p-id="3128"></path></svg>